<mxfile host="app.diagrams.net" modified="2024-03-04T10:58:24.738Z" agent="Mozilla/5.0 (Windows NT 10.0; Win64; x64) AppleWebKit/537.36 (KHTML, like Gecko) Chrome/122.0.0.0 Safari/537.36 Edg/122.0.0.0" etag="G0qwdEvY16_WRNqqKduH" version="23.1.1" type="github">
  <diagram name="第 1 页" id="iST5wiWyrt5HzkS-5A4w">
    <mxGraphModel dx="2306" dy="1111" grid="0" gridSize="10" guides="0" tooltips="1" connect="1" arrows="1" fold="1" page="1" pageScale="1" pageWidth="827" pageHeight="1169" math="0" shadow="0">
      <root>
        <mxCell id="0" />
        <mxCell id="1" parent="0" />
      </root>
    </mxGraphModel>
  </diagram>
</mxfile>
